<?xml version="1.0" encoding="UTF-8"?><svg id="Ebene_4" xmlns="http://www.w3.org/2000/svg" viewBox="0 0 512.3577 249.5426"><defs><style>.cls-1{fill:#00075e;}</style></defs><path class="cls-1" d="M422.5255,56.8073c-.5542,0-1.082,.1134-1.5623,.3179l-3.7363-5.6592c2.893-3.1792-1.6852-7.5246-4.7087-4.4778l-15.5159-9.1588c1.1274-4.9395-6.111-6.4645-7.0962-1.5285l-22.4626,.9124c-1.3714-4.1531-7.434-1.9047-5.7317,2.1501l-13.2666,10.6688c-4.6782-3.7126-9.8063,3.3757-4.8494,6.6653l-4.2236,11.0682c-1.8325-.2572-3.5131,1.2242-3.499,3.0735-.0391,2.0862,2.1542,3.6461,4.1074,2.9312l4.0566,6.3773c-2.2974,2.1727-.5665,6.2125,2.6245,6.0186l1.2449,4.7566c-2.6001,1.4715-1.5268,5.5904,1.5028,5.5699,1.1254,0,2.1066-.6255,2.6166-1.5467l8.1606,2.1035c-.0737,1.5158,.8587,2.876,2.1912,3.4117l-.6899,3.8578c-1.6497,.0914-2.9636,1.4619-2.9636,3.134-.0776,2.4981,3.0173,4.0526,4.9734,2.5452l2.1287,1.8416c-1.0477,1.9271,.4855,4.4559,2.6944,4.3997,2.9635,.0267,4.1354-3.94,1.6896-5.5371l6.0999-16.6746c1.9665,.3877,3.9878-.7601,4.7217-2.5264l9.4263,2.2819c.3184,5.023,7.6482,3.6084,6.0837-1.1663l4.6682-3.3073c2.7063,2.3754,7.071-.0901,6.4067-3.6592l9.9573-3.7225c1.8349,2.3104,5.7312,.9505,5.6967-2.0385,0-1.3653-.8562-2.5338-2.0595-2.9987l1.5371-12.0914c5.122-.4278,4.9279-7.8444-.2229-7.9922Zm-9.814-5.1625c.8314,.78,2.217,1.057,3.3071,.6215l3.7366,5.6599c-.4536,.4365-.8047,.9785-1.0132,1.5864l-11.0669-1.6429c.0021-.8164-.1961-1.5888-.5442-2.2705l5.5806-3.9543Zm-16.363-12.5184l15.4309,9.1086c-.2332,.7026-.1959,1.5538,.093,2.2281l-5.5808,3.9545c-1.1705-1.275-3.1913-1.8759-4.9238-1.369l-5.7817-13.1987c.2878-.2033,.5447-.4473,.7625-.7236Zm-2.3123,1.3481c.0752-.0113,.1494-.0253,.2229-.0411l5.7817,13.1984c-.759,.4763-1.3811,1.1509-1.7937,1.951l-4.8464-1.6525,.6355-13.4558Zm-.7068,14.9627l4.4492,1.5169c-.0632,.3438-.0956,.7076-.0801,1.066l-4.5295,.8129,.1604-3.3959Zm-.2305,4.8809l4.855-.8714c.6089,1.8123,2.2305,3.1631,4.1897,3.3754l.239,6.4486-6.4695,3.0936c-.7456-1.1134-1.9177-1.9175-3.2803-2.1787l.4661-9.8676Zm-1.9434-20.658c.4106,.3459,.8982,.6033,1.4333,.741l-.616,13.0424-9.4517-3.2226c.2112-1.105-.015-2.3301-.5647-3.2638l9.199-7.297Zm-4.5386,36.2332l-12.5989,3.6174-3.6052-9.6594c1.0427-.5592,1.9136-1.3973,2.5142-2.4137l13.8892,6.1887c-.2319,.7031-.3081,1.5168-.1992,2.267Zm-31.5615-8.0656l6.2688-1.4641c.665,1.8323,2.1399,3.2783,3.9893,3.9067l-2.0581,9.4733c-.4155-.0079-.8221,.0619-1.197,.1874l-7.0029-12.1033Zm5.7493,12.8304c-.1501,.1335-.2893,.2793-.4158,.4358l-18.4053-9.5151c.0571-.2313,.0903-.4716,.092-.7198l11.5049-2.6869,7.2241,12.486Zm5.9248-10.0786c.7767,.0811,1.6009,.01,2.3362-.1927l3.5552,9.525-6.1982,1.7796c-.3801-.7256-.9985-1.307-1.751-1.64l2.0579-9.4719Zm3.793-12.0247c-.8965-.5037-1.925-.7982-3.0198-.8189l-.7358-6.3446,6.3237-.7476c.2388,.8687,.7139,1.6399,1.3518,2.2408l-3.9199,5.6703Zm5.1106-4.8441c1.1081,.5646,2.5787,.6507,3.7563,.209l3.6272,6.7354-9.4607,1.6979c-.3394-1.1498-.9902-2.1672-1.8564-2.9522l3.9336-5.6901Zm-8.8101,29.3735l6.3059-1.8106,1.7961,4.8126c-.5474,.3195-1.0181,.756-1.3774,1.2757l-6.811-3.1577c.0853-.356,.1186-.7466,.0864-1.12Zm6.6963-16.9692c.2327-.7281,.3391-1.5436,.2871-2.3345l9.9333-1.7828,4.8992,9.097c-.4597,.3408-.8604,.7568-1.1836,1.2299l-13.936-6.2095Zm11.7214-4.3867l6.395-1.1477-.4504,9.5364c-.4426,.042-.8691,.1401-1.2717,.2882l-4.6729-8.6769Zm-.7231-1.3426l-3.853-7.1547c.5764-.4341,1.0522-.9944,1.3882-1.6387l9.8489,3.3581-.1958,4.1453-7.1882,1.2901Zm-17.0134-21.7245l22.4607-.9123c.0669,.2721,.1648,.5319,.2893,.7762l-9.1992,7.2971c-1.6512-1.6622-4.7554-1.7197-6.4675-.1132l-7.3557-6.2672c.1235-.2439,.2175-.505,.2725-.7806Zm-1.2131,1.8831l7.3555,6.267c-.4355,.6993-.697,1.5172-.7253,2.3932l-6.3213,.7473-1.0457-9.0133c.2646-.0981,.512-.2309,.7368-.3942Zm-.2317,17.3251c-1.6853,.3526-3.1296,1.3661-4.0505,2.7557l-12.3225-6.2729c.0935-.3073,.1521-.6294,.1714-.962l15.47-1.8287,.7317,6.308Zm-3.439-17.3773c.425,.3272,.936,.5461,1.4944,.6146l1.0459,9.0152-15.4729,1.8291c-.084-.2769-.1958-.5416-.333-.7908l13.2656-10.6681Zm-13.5933,15.1508l12.322,6.2728c-.3543,.9287-.4916,2.0209-.3601,3.0379l-6.6921,1.5629-5.9045-10.2049c.2354-.1987,.4485-.4229,.6348-.6688Zm-4.0776,1.5718c.7166,.1422,1.519,.0751,2.1899-.175l5.6824,9.8212-11.0784,2.5873c-.2366-.4692-.5867-.8712-1.0171-1.1668l4.2231-11.0667Zm1.5427,21.9292c-.4338,0-.8494,.0796-1.2334,.2241l-4.0559-6.3762c.0396-.0408,.0774-.0831,.1147-.126l18.4045,9.5147c-.0107,.0374-.021,.0747-.0305,.1125l-9.7346-.4138c-.2766-1.6631-1.7246-2.9353-3.4648-2.9353Zm4.7932,12.0347c-.5364-.4339-1.2479-.6987-1.9866-.6595l-1.2356-4.7209c.8987-.4515,1.5786-1.2767,1.833-2.2711l9.7339,.4138c.0522,.3288,.1497,.6427,.2844,.936l-8.6292,6.3018Zm.875,1.1555l8.6094-6.2872c1.4568,1.4441,4.2205,1.1577,5.3562-.5283l6.8105,3.1573c-.0881,.3244-.1384,.6638-.1475,1.0136l-20.5142,2.9662c-.0327-.1098-.0701-.2175-.1145-.3217Zm8.3887,3.3122l-6.7668-1.7442,19.2134-2.7782c.0103,.0311,.0208,.062,.0315,.0928l-6.676,3.6924c-1.4869-1.889-4.8416-1.4501-5.802,.7372Zm8.3003,14.558c-.738-.0875-1.5036,.1279-2.0747,.5397l-2.1282-1.8414c.8661-1.5437,.0705-3.6927-1.5322-4.3281l.6899-3.8585c2.2675-.0293,3.951-2.3804,3.2505-4.5401l6.6755-3.6921c.3367,.4199,.7502,.7752,1.2192,1.0449l-6.1001,16.6755Zm10.7151-23.9119c-.8945-.651-2.1505-.9428-3.282-.7142l-1.7563-4.7057,12.4915-3.5865c.1555,.3453,.3474,.6708,.5728,.9703l-8.0259,8.0361Zm16.1382,5.1431c-1.4296-1.3736-4.0937-.8426-4.9028,.9397l-9.4275-2.2822c.0017-.0249,.0044-.0495,.0056-.0745l18.7322-2.2331c.0547,.1359,.1162,.2683,.1853,.3962l-4.5928,3.2539Zm4.1235-5.1132c0,.0125,.0007,.0248,.001,.0374l-18.6213,2.2198c-.1357-.4574-.3457-.8829-.616-1.263l8.0259-8.036c1.7142,1.3755,4.5534,1.3319,6.2241-.0897l5.4971,5.1993c-.3245,.5709-.5107,1.23-.5107,1.9321Zm1.4473-3.0411l-5.4377-5.1431c.8919-1.2111,1.1905-2.9984,.7046-4.4674l5.9009-2.8217,.4316,11.6489c-.5959,.1368-1.1406,.4089-1.5994,.7832Zm2.3184-20.5134c1.844-.3401,3.3357-1.696,3.8704-3.4647l11.0674,1.6429c.0066,.1953,.0276,.3868,.0613,.5741l-14.7832,7.0692-.2158-5.8215Zm1.8611,20.0187c-.3516-.1699-.7322-.2883-1.1321-.3467l-.4548-12.272,15.2405-7.2877c.1453,.2386,.3154,.4603,.5059,.6628l-14.1594,19.2437Zm14.3232-6.0978c-1.9022,.1374-3.3149,2.0598-2.8479,3.9337l-9.8193,3.671c-.1409-.2324-.3059-.4484-.4902-.646l14.1597-19.2437c.1709,.0834,.3489,.1547,.5322,.2133l-1.5344,12.0718Z"/><path class="cls-1" d="M509.7379,65.9814c-78.877-110.8444-258.0948-62.0953-375.745,1.3845C96.3065,49.5509,56.6693,27.6839,15.2999,1.8599L.5232,25.5319c35.6338,22.2437,70.0808,41.6451,103.2107,58.1504C70.4783,102.3281,35.8579,124.025,0,148.7095l15.8231,22.9854c41.5128-28.5771,81.2335-53.0186,118.9536-73.2203,71.3167,32.0215,140.6737,54.018,212.803,54.5506,77.4975,1.6084,139.8866-35.1321,161.92-70.0898,3.7121-4.6091,3.8254-12.2319,.238-16.9539Zm-42.0918,21.5653c-76.6783,63.6433-206.9447,35.3236-300.7917-5.4647,95.6915-46.7219,238.9711-91.2781,314.3647-7.9333-3.0535,3.6116-7.5149,8.3252-13.573,13.398Z"/><path class="cls-1" d="M38.9942,199.2135c-2.8452-1.2529-7-1.8789-12.4639-1.8789H4.6109v51.3203h15.979v-18.6484s8.9106,0,8.9106,0c5.6895,0,10.2388-1.5039,13.6479-4.5117,8.3346-7.0646,6.162-22.0692-4.1543-26.2812Zm-13.3662,19.7773h-5.2637v-9.9258h5.79c4.2861,0,6.4292,1.6035,6.4292,4.8125,0,3.4082-2.3188,5.1133-6.9556,5.1133Z"/><path class="cls-1" d="M95.71,196.5446c-15.5177-.2719-24.7375,11.6336-24.6264,26.5069-.2696,35.6433,49.455,35.184,48.8392-.5645,.2548-14.8556-9.4506-26.0646-24.2127-25.9424Zm5.5083,37.7666c-1.166,2.3193-3.0771,3.4785-5.7339,3.4785-4.9629,0-7.4443-4.7754-7.4443-14.3252,0-10.1758,2.5815-15.2646,7.7451-15.2646,4.7871,0,7.1812,4.4619,7.1812,13.3848,0,6.166-.583,10.4082-1.748,12.7266Z"/><path class="cls-1" d="M177.5255,218.2985c-2.5825-.998-6.9443-2.1475-13.0864-3.4463-2.231-.4746-3.7354-.9746-4.5122-1.502-.7773-.5254-1.1655-1.2646-1.1655-2.2178,0-2.1299,1.7168-3.1963,5.1509-3.1963,4.1357,0,6.8804,1.7178,8.2339,5.1514l13.0464-3.9482c-3.3589-8.3965-10.2642-12.5947-20.7163-12.5947-11.7659-.1845-21.1421,5.5518-21.3557,16.8858,.6307,11.2259,7.7572,13.7722,21.167,16.5782,2.3566,.4745,3.9919,1.0194,4.9069,1.6337s1.3726,1.4727,1.3726,2.5752c0,2.1055-1.9805,3.1582-5.9404,3.1582-5.0884,0-8.2466-2.0684-9.4746-6.2031l-14.6255,2.6309c2.9326,10.4277,10.6523,15.6406,23.1602,15.6406,11.6732,.1251,22.7982-5.5718,22.8971-17.4571,.1259-6.1016-3.6282-11.5864-9.0583-13.6884Z"/><polygon class="cls-1" points="211.8492 248.6549 250.462 248.6549 250.462 236.3981 227.3018 236.3981 227.3018 228.0143 246.0255 228.0143 246.0255 216.6217 227.3018 216.6217 227.3018 209.1774 250.462 209.1774 250.462 197.3346 211.8492 197.3346 211.8492 248.6549"/><rect class="cls-1" x="275.9537" y="197.3346" width="15.7529" height="51.3203"/><path class="cls-1" d="M339.7564,197.3346h-19.8516v51.3203h20.8281c7.3447,0,13.3164-2.3994,17.916-7.2002,8.9662-8.975,9.2707-26.6534,.4696-36.4501-4.286-5.1134-10.7401-7.67-19.3621-7.67Zm6.5977,35.7168c-1.792,2.5322-3.9912,3.7979-6.5977,3.7979h-4.0986v-27.8604h4.0986c10.5319,.0786,11.1825,17.8533,6.5977,24.0625Z"/><path class="cls-1" d="M413.7857,196.5446c-15.5167-.2718-24.7376,11.6339-24.6259,26.5069-.2695,35.6431,49.4548,35.1843,48.8387-.5645,.2553-14.8559-9.45-26.0645-24.2127-25.9424Zm5.5088,37.7666c-1.166,2.3193-3.0771,3.4785-5.7334,3.4785-4.9629,0-7.4453-4.7754-7.4453-14.3252,0-10.1758,2.582-15.2646,7.7461-15.2646,4.7871,0,7.1807,4.4619,7.1807,13.3848,0,6.166-.583,10.4082-1.748,12.7266Z"/><path class="cls-1" d="M494.9595,212.524c0,4.5859,.4014,9.0732,1.2031,13.459-2.4801-6.164-13.6057-22.4504-17.3691-28.6484h-14.8887v51.3203h12.7832v-24.8516c0-2.3066-.4141-5.1133-1.2412-8.4219,3.2965,8.3007,14.9968,25.6409,19.5127,33.2734h12.8213v-51.3203h-12.8213v15.1895Z"/></svg>